<svg width="140" height="116" viewBox="0 0 140 116" fill="none" xmlns="http://www.w3.org/2000/svg">
<rect x="0.5" y="0.5" width="139" height="115" rx="4.5" stroke="#8A38F5" stroke-dasharray="10 5"/>
<path d="M26.6966 41.5321H23.5172V44.6775H26.6966V41.5321Z" fill="black"/>
<path d="M35.8393 41.4943H28.0657V39.2713H35.8393C37.7865 39.2713 39.3686 37.6986 39.3686 35.763V28.7313C39.3686 26.7956 37.7865 25.2229 35.8393 25.2229H28.7655C26.8183 25.2229 25.2362 26.7956 25.2362 28.7313V33.0788H23V28.7313C23 25.5707 25.5861 23 28.7655 23H35.8393C39.0187 23 41.6048 25.5707 41.6048 28.7313V35.763C41.6048 38.9235 39.0187 41.4943 35.8393 41.4943Z" fill="black"/>
<path d="M50.83 41.9895H48.5887V28.8789H50.83V29.9368C51.4254 29.087 52.2659 28.6188 53.299 28.6188C55.7505 28.6188 57.2563 30.4744 57.2563 33.5092C57.2563 36.6655 55.7154 38.4344 53.299 38.4344C52.2659 38.4344 51.4079 38.0008 50.83 37.1684V41.9895ZM52.8963 30.457C51.548 30.457 50.83 31.5322 50.83 33.5092C50.83 35.4862 51.583 36.5961 52.8963 36.5961C54.227 36.5961 54.945 35.5036 54.945 33.5092C54.945 31.5496 54.2095 30.457 52.8963 30.457Z" fill="black"/>
<path d="M64.7139 34.2723V28.8789H66.9552V38.1742H64.7139V36.9256C64.101 37.9488 63.1379 38.4344 61.9822 38.4344C60.1261 38.4344 58.8829 37.3245 58.8829 35.0874V28.8789H61.1242V34.6365C61.1242 35.9024 61.6495 36.5961 62.7527 36.5961C63.9609 36.5961 64.7139 35.5209 64.7139 34.2723Z" fill="black"/>
<path d="M77.148 32.1739H74.9067C74.6966 30.96 73.9611 30.457 73.0156 30.457C71.6322 30.457 70.8968 31.5496 70.8968 33.5439C70.8968 35.5036 71.6673 36.5961 73.0856 36.5961C74.0487 36.5961 74.7316 36.0758 74.9592 35.018H77.2181C76.7978 37.3418 75.1518 38.4344 73.0331 38.4344C70.2664 38.4344 68.5854 36.5614 68.5854 33.5439C68.5854 30.3877 70.319 28.6188 73.0156 28.6188C75.1518 28.6188 76.8328 29.7981 77.148 32.1739Z" fill="black"/>
<path d="M78.7702 38.1742V25.688H81.0115V30.1275C81.6244 29.1217 82.605 28.6188 83.7957 28.6188C85.6693 28.6188 86.9475 29.7287 86.9475 31.9831V38.1742H84.7062V32.434C84.7062 31.1681 84.1634 30.457 83.0252 30.457C81.782 30.457 81.0115 31.5322 81.0115 32.7809V38.1742H78.7702Z" fill="black"/>
<path d="M93.0755 38.4344C90.2913 38.4344 88.5753 36.5788 88.5753 33.5439C88.5753 30.3877 90.3439 28.6188 93.0755 28.6188C95.8421 28.6188 97.5582 30.4917 97.5582 33.5439C97.5582 36.6655 95.7896 38.4344 93.0755 38.4344ZM93.0755 36.5961C94.4938 36.5961 95.2468 35.5209 95.2468 33.5439C95.2468 31.5669 94.4763 30.457 93.0755 30.457C91.6396 30.457 90.8867 31.5496 90.8867 33.5439C90.8867 35.5036 91.6572 36.5961 93.0755 36.5961Z" fill="black"/>
<path d="M98.7914 38.1742V35.729H101.26V38.1742H98.7914Z" fill="black"/>
<path d="M105.377 31.9311H103.119C103.416 29.8674 104.94 28.6188 107.304 28.6188C109.913 28.6188 111.243 30.1449 111.243 32.2953V35.9024C111.243 37.047 111.348 37.6886 111.524 38.1742H109.195C109.072 37.8621 109.02 37.4112 109.002 36.9083C108.232 37.9835 107.076 38.4344 105.955 38.4344C104.117 38.4344 102.803 37.5326 102.803 35.7463C102.803 34.4804 103.521 33.5266 104.957 33.0583C106.2 32.6421 107.409 32.5381 108.984 32.5207V32.2953C108.984 31.0987 108.407 30.457 107.163 30.457C106.095 30.457 105.517 31.0467 105.377 31.9311ZM105.062 35.625C105.062 36.336 105.623 36.7869 106.533 36.7869C107.916 36.7869 108.984 35.677 108.984 34.2896V33.8908C105.798 33.9428 105.062 34.6885 105.062 35.625Z" fill="black"/>
<path d="M113.381 27.8384V25.688H115.622V27.8384H113.381ZM113.381 38.1742V28.8789H115.622V38.1742H113.381Z" fill="black"/>
<path d="M28.6966 89.5321H25.5172V92.6775H28.6966V89.5321Z" fill="black"/>
<path d="M37.8393 89.4943H30.0657V87.2713H37.8393C39.7865 87.2713 41.3686 85.6986 41.3686 83.763V76.7313C41.3686 74.7956 39.7865 73.2229 37.8393 73.2229H30.7655C28.8183 73.2229 27.2362 74.7956 27.2362 76.7313V81.0788H25V76.7313C25 73.5707 27.5861 71 30.7655 71H37.8393C41.0187 71 43.6048 73.5707 43.6048 76.7313V83.763C43.6048 86.9235 41.0187 89.4943 37.8393 89.4943Z" fill="black"/>
</svg>
