<svg width="24" height="24" viewBox="0 0 24 24" fill="none" xmlns="http://www.w3.org/2000/svg">
<path d="M9 8.5V10C9 11.6569 7.65685 13 6 13V13C4.34315 13 3 11.6569 3 10V9.04911C3 8.61918 3.06931 8.19207 3.20527 7.7842L4.11627 5.05132C4.52461 3.82631 5.671 3.00002 6.96228 3H17.0377C18.329 3.00002 19.4754 3.82631 19.8837 5.05132L20.7947 7.7842C20.9307 8.19206 21 8.61918 21 9.04911V10C21 11.6569 19.6569 13 18 13V13C16.3431 13 15 11.6569 15 10V8.5" stroke="black" stroke-width="1.5" stroke-linecap="round" stroke-linejoin="round"/>
<path d="M20.9467 8.40002H3.05347" stroke="black" stroke-width="1.5" stroke-linecap="round" stroke-linejoin="round"/>
<path d="M20 12.2349V19C20 20.1045 19.1046 21 18 21H6C4.89543 21 4 20.1045 4 19V12.2349" stroke="black" stroke-width="1.5" stroke-linecap="round" stroke-linejoin="round"/>
<path d="M15 8.40002V9.90002C15 11.5569 13.6569 12.9 12 12.9V12.9C10.3431 12.9 9 11.5569 9 9.90002V8.40002" stroke="black" stroke-width="1.5" stroke-linecap="round" stroke-linejoin="round"/>
</svg>
