<svg width="24" height="24" viewBox="0 0 24 24" fill="none" xmlns="http://www.w3.org/2000/svg">
<path d="M9.38028 16.5331L10.9539 13.8061M9.38028 7.46692L10.9539 10.1939M17.2305 12H14.0922M13.48 10.52C14.2974 11.3374 14.2974 12.6627 13.48 13.4801C12.6626 14.2975 11.3373 14.2975 10.5199 13.4801C9.70253 12.6627 9.70253 11.3374 10.5199 10.52C11.3373 9.7026 12.6626 9.7026 13.48 10.52ZM20.4482 10.6679C21.1839 11.4036 21.1839 12.5964 20.4482 13.3321C19.7125 14.0678 18.5197 14.0678 17.784 13.3321C17.0483 12.5964 17.0483 11.4036 17.784 10.6679C18.5197 9.93219 19.7125 9.93219 20.4482 10.6679ZM6.21596 10.6679C6.95165 11.4036 6.95165 12.5964 6.21596 13.3321C5.48026 14.0678 4.28747 14.0678 3.55177 13.3321C2.81608 12.5964 2.81608 11.4036 3.55177 10.6679C4.28747 9.93219 5.48026 9.93219 6.21596 10.6679ZM16.8897 4.5049C17.6254 5.24059 17.6254 6.43338 16.8897 7.16908C16.154 7.90478 14.9612 7.90478 14.2255 7.16908C13.4898 6.43339 13.4898 5.2406 14.2255 4.5049C14.9612 3.7692 16.154 3.7692 16.8897 4.5049ZM9.77447 16.8309C10.5102 17.5666 10.5102 18.7594 9.77447 19.4951C9.03877 20.2308 7.84598 20.2308 7.11028 19.4951C6.37458 18.7594 6.37458 17.5666 7.11028 16.8309C7.84597 16.0952 9.03877 16.0952 9.77447 16.8309ZM9.77447 4.5049C10.5102 5.24059 10.5102 6.43338 9.77447 7.16908C9.03877 7.90478 7.84598 7.90478 7.11028 7.16908C6.37458 6.43339 6.37458 5.2406 7.11028 4.5049C7.84597 3.7692 9.03877 3.7692 9.77447 4.5049ZM16.8897 16.8309C17.6254 17.5666 17.6254 18.7594 16.8897 19.4951C16.154 20.2308 14.9612 20.2308 14.2255 19.4951C13.4898 18.7594 13.4898 17.5666 14.2255 16.8309C14.9612 16.0952 16.154 16.0952 16.8897 16.8309Z" stroke="black" stroke-width="1.5" stroke-linecap="round" stroke-linejoin="round"/>
</svg>
