<svg width="24" height="24" viewBox="0 0 24 24" fill="none" xmlns="http://www.w3.org/2000/svg">
<path d="M6.05771 6.30765C8.80143 3.56393 13.2504 3.56414 15.9942 6.30765L16.2433 6.57035C18.5671 9.14249 18.6503 13.0177 16.4952 15.6846L19.2804 18.4698C19.5732 18.7627 19.5732 19.2374 19.2804 19.5303C18.9875 19.8232 18.5127 19.8232 18.2198 19.5303L15.4356 16.7461C12.6764 18.9759 8.62239 18.8088 6.05771 16.2442C3.3142 13.5003 3.31399 9.05137 6.05771 6.30765ZM14.7276 7.17289C12.5584 5.21287 9.20889 5.27757 7.11826 7.3682C4.96033 9.52613 4.96053 13.0256 7.11826 15.1836C9.26146 17.3268 12.7264 17.3403 14.8878 15.2266C14.9012 15.2107 14.9148 15.1947 14.9298 15.1797C14.9451 15.1644 14.9614 15.1505 14.9776 15.1368C17.0239 13.0433 17.0757 9.72776 15.13 7.57425L14.9337 7.3682L14.7276 7.17289Z" fill="black"/>
</svg>
