<svg width="24" height="24" viewBox="0 0 24 24" fill="none" xmlns="http://www.w3.org/2000/svg">
<path fill-rule="evenodd" clip-rule="evenodd" d="M11.2786 10.5334L14.2539 7.55813C14.2727 7.5393 14.281 7.51246 14.2762 7.48631C14.2714 7.46016 14.2541 7.43802 14.2299 7.42707C12.4739 6.67216 10.4356 7.05537 9.07372 8.39648C7.7688 9.67206 7.34936 11.6024 8.00728 13.3045L3.54942 17.7654C2.81328 18.5024 2.81328 19.6964 3.54942 20.4335C4.28646 21.1696 5.48049 21.1696 6.21754 20.4335L10.7114 15.9396C12.4623 16.5911 14.4331 16.132 15.7158 14.7738C16.9985 13.4156 17.3443 11.4218 16.5939 9.71102C16.5823 9.68767 16.5603 9.67121 16.5346 9.66667C16.509 9.66212 16.4827 9.67005 16.4638 9.68801L13.4135 12.6673L12.3471 11.5978L11.2786 10.5334Z" stroke="black" stroke-width="1.5" stroke-linecap="round" stroke-linejoin="round"/>
<path d="M7.10391 19.5472C10.9748 22.0627 16.1201 21.251 19.0286 17.6659C21.9371 14.0809 21.6707 8.87878 18.4113 5.60955C15.1518 2.34031 9.95057 2.05835 6.35682 4.95607C2.76306 7.85379 1.93591 12.9966 4.4398 16.8751" stroke="black" stroke-width="1.5" stroke-linecap="round" stroke-linejoin="round"/>
</svg>
